<svg width="1577" height="420" viewBox="0 0 1577 420" fill="none" xmlns="http://www.w3.org/2000/svg">
<g clip-path="url(#clip0_78_3)">
<path fill-rule="evenodd" clip-rule="evenodd" d="M1204.71 125.045V250.091H1234.28H1263.85L1264.35 173.911L1264.85 97.7283L1358.4 143.938C1409.85 169.352 1479.87 203.927 1514 220.773C1548.12 237.619 1576.19 250.891 1576.38 250.268C1576.56 249.646 1577.08 193.295 1577.54 125.045L1578.38 0.954545L1549.05 1.52536L1519.72 2.09618V79.3208C1519.72 121.794 1519.25 156.545 1518.68 156.545C1518.1 156.545 1447.77 121.323 1362.38 78.2727C1276.99 35.2227 1206.58 0 1205.91 0C1205.25 0 1204.71 56.2705 1204.71 125.045ZM1.90918 28.6364V55.3636H69.6858H137.462V152.727V250.091H167.055H196.648V152.727V55.3636H467.754H738.861V46.8109C738.861 28.9017 729.473 14.2055 713.087 6.45845L703.541 1.94727L352.725 1.92818L1.90918 1.90909V28.6364ZM812.365 6.45845C795.957 14.2151 788.362 25.2764 785.669 45.3409L784.323 55.3636H942.011H1099.7V125.045V194.727H971.783H843.867V145.996V97.2644L814.751 97.7913L785.636 98.3182L785.128 150.65C784.563 208.799 786.096 220.586 795.827 232.909C798.729 236.584 805.356 241.739 810.553 244.364L820.002 249.136H972.738H1125.47L1133.29 244.954C1137.59 242.653 1143.78 237.726 1147.05 234.003C1158.32 221.174 1158.88 216.016 1158.88 126.703C1158.88 76.4992 1158.11 42.4009 1156.84 36.4636C1153.95 22.9893 1145.48 12.1495 1133.47 6.55964L1123.56 1.94727H972.738H821.911L812.365 6.45845ZM524.553 98.7955L366.567 99.2956V174.693V250.091H396.159H425.752V201.409V152.727H494.979H564.205L598.554 184.571C617.443 202.085 640.995 223.992 650.889 233.253L668.877 250.091H705.778C726.073 250.091 742.679 249.759 742.679 249.354C742.679 248.949 726.571 233.738 706.882 215.548C687.194 197.358 665.477 177.093 658.625 170.51C651.771 163.93 644.468 157.263 642.396 155.698C639.004 153.134 641.703 152.842 669.412 152.788C702.857 152.722 711.267 151.024 723.184 141.935C731.991 135.219 738.819 120.154 738.842 107.386L738.861 97.3636L710.7 97.8295C695.211 98.0853 611.446 98.5205 524.553 98.7955ZM306.427 330.576C295.926 348.547 285.319 366.784 282.852 371.102C280.387 375.421 275.018 384.302 270.919 390.839C266.822 397.377 263.451 403.391 263.428 404.202C263.405 405.016 261.706 407.83 259.651 410.455C257.597 413.08 255.898 415.873 255.875 416.659C255.852 417.446 261.784 418.091 269.058 418.091C281.554 418.091 282.432 417.801 284.998 412.841C286.491 409.954 289.347 404.792 291.342 401.371L294.972 395.149L336.88 395.644L378.791 396.136L385.303 407.114L391.814 418.091H404.01C410.717 418.091 416.206 417.396 416.206 416.546C416.206 415.697 413.199 410.01 409.524 403.906C405.848 397.803 402.841 392.475 402.841 392.066C402.841 391.658 398.271 383.815 392.683 374.638C381.577 356.399 366.169 330.433 364.657 327.409C364.132 326.359 359.953 319.273 355.371 311.659L347.039 297.818L336.279 297.858L325.519 297.898L306.427 330.576ZM588.034 357.955V418.091H599.489H610.944V394.227V370.364H633.719H656.494L666.815 381.341C672.489 387.377 682.646 398.166 689.382 405.311L701.631 418.307L715.37 417.721L729.11 417.136L707.47 394.227L685.831 371.318L698.504 370.243C721.233 368.317 725.496 362.525 725.496 333.577C725.496 315.981 725.004 312.98 721.357 308.345C713.501 298.358 709.656 297.818 646.326 297.818H588.034V357.955ZM897.324 357.955V418.091H966.056H1034.79V407.62V397.148L977.988 396.642L921.189 396.136L920.624 383.25L920.061 370.364H966.922H1013.79V358.909V347.455H967.01H920.235V334.091V320.727H977.511H1034.79V309.273V297.818H966.056H897.324V357.955ZM1218.07 301.163C1207.19 306.594 1204.38 314.477 1205.12 337.443C1205.74 356.624 1205.88 357.151 1211.95 363.216L1218.14 369.409L1268.7 369.976L1319.26 370.541V383.817V397.091H1262.94H1206.61V407.591V418.091H1266.85C1332.2 418.091 1335.33 417.644 1339.89 407.644C1341.21 404.739 1342.17 393.882 1342.17 381.759C1342.17 361.389 1342.03 360.727 1336.6 354.644L1331.03 348.409L1279.32 347.844L1227.62 347.279V334.003V320.727H1283.94H1340.26V309.273V297.818L1282.51 297.822C1231.35 297.824 1223.99 298.206 1218.07 301.163ZM610.944 334.091V347.455H656.765H702.586V334.091V320.727H656.765H610.944V334.091ZM333.472 330.584C331.903 333.037 325.849 343.207 320.02 353.182L309.422 371.318L322.634 371.878C329.9 372.185 342.213 372.185 349.999 371.878L364.151 371.318L351.308 349.791C344.244 337.951 337.984 327.781 337.394 327.193C336.806 326.605 335.04 328.131 333.472 330.584Z" fill="white"/>
</g>
<defs>
<clipPath id="clip0_78_3">
<rect width="1577" height="420" fill="white"/>
</clipPath>
</defs>
</svg>
