<svg xmlns="http://www.w3.org/2000/svg" width="826" height="220" viewBox="0 0 826 220" version="1.1"><path d="M 631 65.500 L 631 131 646.489 131 L 661.977 131 662.239 91.096 L 662.500 51.191 711.500 75.396 C 738.450 88.708, 775.125 106.819, 793 115.643 C 810.875 124.467, 825.578 131.419, 825.673 131.093 C 825.768 130.767, 826.043 101.250, 826.284 65.500 L 826.723 0.500 811.362 0.799 L 796 1.098 796 41.549 C 796 63.797, 795.753 82, 795.452 82 C 795.150 82, 758.310 63.550, 713.585 41 C 668.860 18.450, 631.981 0, 631.633 0 C 631.285 0, 631 29.475, 631 65.500 M 1 15 L 1 29 36.500 29 L 72 29 72 80 L 72 131 87.500 131 L 103 131 103 80 L 103 29 245 29 L 387 29 387 24.520 C 387 15.139, 382.083 7.441, 373.500 3.383 L 368.500 1.020 184.750 1.010 L 1 1 1 15 M 425.500 3.383 C 416.906 7.446, 412.928 13.240, 411.517 23.750 L 410.812 29 493.406 29 L 576 29 576 65.500 L 576 102 509 102 L 442 102 442 76.474 L 442 50.948 426.750 51.224 L 411.500 51.500 411.234 78.912 C 410.938 109.371, 411.741 115.545, 416.838 122 C 418.358 123.925, 421.829 126.625, 424.551 128 L 429.500 130.500 509.500 130.500 L 589.500 130.500 593.595 128.309 C 595.847 127.104, 599.090 124.523, 600.802 122.573 C 606.702 115.853, 607 113.151, 607 66.368 C 607 40.071, 606.595 22.210, 605.928 19.100 C 604.414 12.042, 599.978 6.364, 593.690 3.436 L 588.500 1.020 509.500 1.020 L 430.500 1.020 425.500 3.383 M 274.750 51.750 L 192 52.012 192 91.506 L 192 131 207.500 131 L 223 131 223 105.500 L 223 80 259.260 80 L 295.519 80 313.510 96.680 C 323.404 105.854, 335.740 117.329, 340.922 122.180 L 350.344 131 369.672 131 C 380.302 131, 389 130.826, 389 130.614 C 389 130.402, 380.563 122.434, 370.250 112.906 C 359.938 103.378, 348.563 92.763, 344.974 89.315 C 341.384 85.868, 337.559 82.376, 336.474 81.556 C 334.697 80.213, 336.111 80.060, 350.624 80.032 C 368.142 79.997, 372.547 79.108, 378.789 74.347 C 383.402 70.829, 386.978 62.938, 386.990 56.250 L 387 51 372.250 51.244 C 364.137 51.378, 320.263 51.606, 274.750 51.750 M 160.500 173.159 C 155 182.572, 149.444 192.125, 148.152 194.387 C 146.861 196.649, 144.049 201.301, 141.902 204.725 C 139.756 208.150, 137.990 211.300, 137.978 211.725 C 137.966 212.151, 137.076 213.625, 136 215 C 134.924 216.375, 134.034 217.838, 134.022 218.250 C 134.010 218.662, 137.117 219, 140.927 219 C 147.472 219, 147.932 218.848, 149.276 216.250 C 150.058 214.738, 151.554 212.034, 152.599 210.242 L 154.500 206.983 176.451 207.242 L 198.403 207.500 201.814 213.250 L 205.224 219 211.612 219 C 215.125 219, 218 218.636, 218 218.191 C 218 217.746, 216.425 214.767, 214.500 211.570 C 212.575 208.373, 211 205.582, 211 205.368 C 211 205.154, 208.606 201.046, 205.679 196.239 C 199.862 186.685, 191.792 173.084, 191 171.500 C 190.725 170.950, 188.536 167.238, 186.136 163.250 L 181.772 156 176.136 156.021 L 170.500 156.042 160.500 173.159 M 308 187.500 L 308 219 314 219 L 320 219 320 206.500 L 320 194 331.929 194 L 343.858 194 349.264 199.750 C 352.236 202.912, 357.556 208.563, 361.084 212.306 L 367.500 219.113 374.696 218.806 L 381.893 218.500 370.558 206.500 L 359.224 194.500 365.862 193.937 C 377.767 192.928, 380 189.894, 380 174.731 C 380 165.514, 379.742 163.942, 377.832 161.514 C 373.717 156.283, 371.703 156, 338.532 156 L 308 156 308 187.500 M 470 187.500 L 470 219 506 219 L 542 219 542 213.515 L 542 208.030 512.250 207.765 L 482.500 207.500 482.204 200.750 L 481.909 194 506.454 194 L 531 194 531 188 L 531 182 506.500 182 L 482 182 482 175 L 482 168 512 168 L 542 168 542 162 L 542 156 506 156 L 470 156 470 187.500 M 638 157.752 C 632.303 160.597, 630.830 164.726, 631.219 176.756 C 631.544 186.803, 631.617 187.079, 634.793 190.256 L 638.035 193.500 664.518 193.797 L 691 194.093 691 201.047 L 691 208 661.500 208 L 632 208 632 213.500 L 632 219 663.550 219 C 697.781 219, 699.419 218.766, 701.805 213.528 C 702.499 212.006, 703 206.319, 703 199.969 C 703 189.299, 702.929 188.952, 700.083 185.766 L 697.167 182.500 670.083 182.204 L 643 181.908 643 174.954 L 643 168 672.500 168 L 702 168 702 162 L 702 156 671.750 156.002 C 644.954 156.003, 641.100 156.203, 638 157.752 M 320 175 L 320 182 344 182 L 368 182 368 175 L 368 168 344 168 L 320 168 320 175 M 174.666 173.163 C 173.844 174.448, 170.673 179.775, 167.620 185 L 162.069 194.500 168.989 194.793 C 172.795 194.954, 179.244 194.954, 183.322 194.793 L 190.735 194.500 184.008 183.224 C 180.308 177.022, 177.029 171.695, 176.720 171.387 C 176.412 171.079, 175.487 171.878, 174.666 173.163" stroke="none" fill="#040404" fill-rule="evenodd"/></svg>